<svg width="310" height="105" viewBox="0 0 310 105" fill="none" xmlns="http://www.w3.org/2000/svg">
<path d="M118.951 30.4485C124.595 25.8893 130.681 25.4377 136.956 28.0271C142.001 30.1081 143.887 34.6106 144.738 39.6668C145.18 42.2948 145.076 44.9432 145.078 47.587C145.087 54.629 145.051 61.6732 145.11 68.7152C145.121 69.918 144.77 70.2039 143.614 70.1835C140.169 70.1222 136.722 70.1381 133.277 70.2289C132.138 70.2584 131.859 69.9179 131.866 68.8037C131.913 61.2125 131.893 53.6191 131.888 46.028C131.888 45.4288 131.891 44.8275 131.839 44.2329C131.537 40.8583 129.317 38.6275 126.081 38.4277C122.416 38.2008 119.97 40.0095 119.205 43.4681C118.987 44.4553 118.946 45.4447 118.946 46.4433C118.946 53.8846 118.923 61.3283 118.973 68.7696C118.98 69.868 118.735 70.2084 117.589 70.1857C114.044 70.1177 110.497 70.163 106.952 70.2175C106.094 70.2311 105.736 70.0723 105.736 69.0896C105.765 50.4079 105.763 31.7285 105.74 13.0468C105.738 12.164 106.033 11.9711 106.852 11.9801C110.449 12.0187 114.046 12.0369 117.641 11.9711C118.683 11.9529 118.982 12.2184 118.973 13.2851C118.921 18.9291 118.951 24.5708 118.951 30.4485Z" fill="#08B0DB"/>
<path d="M27.7003 70.0246C18.9518 69.7659 11.692 66.591 7.05104 58.7729C0.601398 47.907 4.85653 28.3698 23.7629 25.499C30.3192 24.5027 36.4693 25.6238 42.1042 29.2752C43.2298 30.006 43.4023 30.537 42.5218 31.6377C40.7448 33.8594 39.095 36.181 37.4542 38.5072C36.8755 39.3264 36.551 39.5942 35.5411 38.8861C30.6868 35.4843 24.1442 35.9518 20.268 39.8756C16.9411 43.2434 16.7777 47.2534 18.246 51.4178C19.7052 55.5571 22.7825 57.9219 27.1307 58.4347C30.3147 58.8115 33.2989 58.0807 35.8588 56.0564C36.5192 55.5345 36.8551 55.573 37.3657 56.2448C39.2697 58.7479 41.201 61.2329 43.2003 63.6612C43.8471 64.4464 43.7541 64.8662 42.9893 65.4381C39.3991 68.1251 35.262 69.2915 30.9047 69.8407C29.8653 69.9724 28.8101 69.9656 27.7003 70.0246Z" fill="#08B0DB"/>
<path d="M236.138 47.8843C236.138 44.6867 236.192 41.4892 236.111 38.2961C236.081 37.1296 236.476 36.8641 237.563 36.9004C239.857 36.9776 242.158 36.9753 244.455 36.9004C245.504 36.8664 245.808 37.175 245.799 38.2326C245.749 44.0263 245.78 49.8201 245.769 55.6139C245.767 56.4695 245.819 57.3092 246.08 58.1284C246.645 59.9099 247.968 60.8744 249.761 60.8131C251.495 60.7541 252.759 59.7646 253.226 58.0354C253.449 57.2161 253.54 56.3764 253.537 55.5186C253.521 49.8247 253.553 44.1307 253.506 38.4368C253.496 37.3293 253.698 36.8346 254.958 36.8936C257.3 37.0003 259.651 36.9435 262 36.9118C262.758 36.9004 263.187 36.9957 263.18 37.9398C263.137 44.3826 263.348 50.8323 263.091 57.266C262.712 66.7771 254.636 71.9559 244.939 69.1554C239.596 67.6122 236.46 63.5659 236.206 57.6201C236.067 54.3794 236.181 51.1296 236.181 47.8843C236.167 47.8843 236.151 47.8843 236.138 47.8843Z" fill="#7D7D7D"/>
<path d="M165.399 69.8815C161.454 69.9746 157.787 68.7718 154.442 66.4388C153.555 65.8216 153.527 65.4108 154.199 64.612C155.352 63.2367 156.425 61.7911 157.453 60.3183C158.048 59.4673 158.418 59.2403 159.38 60.0233C161.761 61.9636 164.548 62.4992 167.55 61.7888C168.671 61.5233 169.522 60.8811 169.538 59.676C169.552 58.5368 168.603 58.1079 167.659 57.8424C165.932 57.359 164.194 56.921 162.46 56.4603C157.222 55.0669 154.955 52.4276 154.891 47.6573C154.821 42.4082 157.272 38.9905 162.267 37.6062C167.484 36.1583 172.214 37.2726 176.496 40.5382C177.224 41.0942 177.331 41.4392 176.6 42.1041C175.273 43.3114 174.015 44.605 172.781 45.9099C172.279 46.4409 171.889 46.5203 171.26 46.1096C169.565 45.0021 167.684 44.6458 165.685 44.9703C164.804 45.1133 163.989 45.4356 163.837 46.4409C163.681 47.4848 164.296 48.1611 165.194 48.5242C167.048 49.2731 169.025 49.6113 170.954 50.1015C174.537 51.0115 177.54 52.6409 178.275 56.6623C179.492 63.3207 176.072 68.2294 169.404 69.5638C168.124 69.818 166.84 69.9473 165.399 69.8815Z" fill="#7D7D7D"/>
<path d="M217.849 48.6037C217.849 41.9634 217.876 35.3232 217.824 28.6829C217.815 27.5754 218.087 27.2214 219.226 27.26C221.571 27.3394 223.92 27.3054 226.264 27.2237C227.274 27.1874 227.503 27.5437 227.503 28.4968C227.476 41.8772 227.476 55.2598 227.501 68.6402C227.503 69.5434 227.26 69.8521 226.327 69.8339C223.933 69.7863 221.532 69.7885 219.14 69.8816C218.058 69.9224 217.822 69.5457 217.828 68.5268C217.869 61.8842 217.849 55.244 217.849 48.6037Z" fill="#7D7D7D"/>
<path d="M94.7952 25.347C89.4167 17.3224 79.0524 13.2193 69.126 15.3593C58.2873 17.6968 49.9382 26.5384 50.299 38.3279C50.5351 46.0144 50.3444 53.7144 50.3444 61.4077C50.3444 69.7001 50.3944 77.9947 50.299 86.2871C50.2809 87.8802 50.7688 88.1798 52.219 88.1298C55.4619 88.0232 58.714 88.0345 61.9592 88.1276C63.1983 88.1639 63.5251 87.853 63.516 86.5912C63.457 77.3003 63.4956 68.0071 63.4661 58.7162C63.4638 57.6859 63.6046 57.443 64.6802 57.8674C71.4567 60.5408 78.2513 60.4523 84.9233 57.5565C97.7341 51.9965 102.393 36.6849 94.7952 25.347ZM74.3638 47.7958C68.4361 47.7958 63.4888 43.046 63.4865 37.3498C63.4843 31.5696 68.4633 26.7245 74.3956 26.7336C80.271 26.7426 85.3704 31.7103 85.325 37.3838C85.2819 43.0414 80.2778 47.7958 74.3638 47.7958Z" fill="#08B0DB"/>
<path d="M210.026 47.14C209.883 41.6934 207.287 38.4481 202.648 37.3588C199.349 36.585 196.004 36.5804 192.697 37.2794C187.661 38.3438 184.443 42.0565 184.012 47.0492C183.933 47.9569 184.051 48.4449 185.144 48.3949C186.887 48.3178 188.639 48.3359 190.384 48.3927C191.179 48.4176 191.494 48.1453 191.696 47.376C192.692 43.5997 198.302 41.9612 201.334 44.5301C201.886 44.9976 202.174 45.6127 202.335 46.323C202.875 48.7013 202.841 48.7558 200.467 48.7626C196.242 48.7739 192.087 49.1779 188.288 51.2476C184.756 53.172 182.841 56.8303 183.263 60.711C183.742 65.134 186.107 68.1002 190.239 69.2644C194.481 70.4581 198.523 69.7273 202.626 67.5827C202.415 68.8309 202.907 69.1327 203.924 69.0851C205.617 69.0056 207.319 69.0442 209.016 69.0715C209.72 69.0828 210.115 68.9625 210.11 68.107C210.074 61.1195 210.208 54.1252 210.026 47.14ZM199.816 62.1135C197.942 63.0575 195.949 63.4048 193.868 62.9713C192.468 62.6808 191.333 62.0227 190.97 60.5158C190.634 59.1201 191.34 57.5429 192.695 56.6646C194.338 55.6003 196.215 55.337 198.11 55.1782C198.754 55.1237 199.405 55.1283 200.052 55.1237C202.598 55.1033 202.598 55.1056 202.598 57.8515C203.132 59.9916 201.654 61.1876 199.816 62.1135Z" fill="#7D7D7D"/>
<path d="M304.293 26.6904C304.295 25.8983 304.007 25.6691 303.246 25.6646C300.902 25.6555 298.553 25.6396 296.216 25.508C294.999 25.4399 294.584 25.7531 294.616 27.0444C294.707 30.7367 294.648 34.4313 294.648 38.2598C288.257 35.9836 284.91 36.4238 281.17 37.4836C270.719 40.4452 265.894 52.498 271.398 61.7866C275.405 68.5517 284.331 71.8469 292.029 69.405C298.966 67.206 304.05 61.4598 304.191 55.0057C304.395 45.574 304.259 36.1311 304.293 26.6904ZM286.75 61.335C282.495 61.3918 278.737 57.6268 278.753 53.3218C278.771 49.0825 282.447 45.5445 286.809 45.5718C291.048 45.5967 294.645 49.1824 294.643 53.3762C294.643 57.6427 291.037 61.2783 286.75 61.335Z" fill="#7D7D7D"/>
</svg>
