<svg width="185" height="62" viewBox="0 0 185 62" fill="none" xmlns="http://www.w3.org/2000/svg">
<path d="M70.9867 18.171C74.3549 15.4501 77.9871 15.1806 81.7318 16.7259C84.7425 17.9678 85.8679 20.6548 86.3758 23.6722C86.6399 25.2405 86.5776 26.821 86.5789 28.3988C86.5844 32.6012 86.5627 36.8051 86.5979 41.0075C86.6047 41.7253 86.3947 41.896 85.7054 41.8838C83.6495 41.8472 81.5923 41.8567 79.5365 41.9109C78.8566 41.9285 78.69 41.7253 78.6941 41.0603C78.7225 36.5301 78.7103 31.9986 78.7076 27.4684C78.7076 27.1108 78.709 26.7519 78.6778 26.3971C78.4977 24.3832 77.1732 23.0519 75.2419 22.9327C73.0547 22.7973 71.5948 23.8767 71.1383 25.9407C71.0083 26.5298 70.984 27.1203 70.984 27.7162C70.984 32.157 70.9704 36.5992 71.0002 41.04C71.0043 41.6955 70.858 41.8987 70.1741 41.8851C68.0586 41.8445 65.9418 41.8716 63.8264 41.9041C63.3144 41.9122 63.1005 41.8174 63.1005 41.231C63.1181 30.0822 63.1167 18.9348 63.1032 7.78601C63.1018 7.25918 63.2779 7.14407 63.7668 7.14948C65.9134 7.17251 68.06 7.18334 70.2052 7.14407C70.8269 7.13323 71.0056 7.29169 71.0002 7.92822C70.9691 11.2964 70.9867 14.6633 70.9867 18.171Z" fill="white"/>
<path d="M16.5308 41.789C11.3099 41.6346 6.97743 39.7399 4.20785 35.0743C0.358867 28.5898 2.89822 16.9304 14.1811 15.2172C18.0937 14.6227 21.7639 15.2917 25.1267 17.4708C25.7984 17.9069 25.9013 18.2238 25.3759 18.8806C24.3154 20.2065 23.3308 21.592 22.3517 22.9802C22.0063 23.4691 21.8127 23.6289 21.21 23.2063C18.3131 21.1762 14.4086 21.4552 12.0954 23.7968C10.11 25.8066 10.0125 28.1997 10.8887 30.6849C11.7595 33.1552 13.596 34.5664 16.1909 34.8725C18.091 35.0973 19.8719 34.6612 21.3996 33.4531C21.7937 33.1416 21.9941 33.1647 22.2989 33.5655C23.4351 35.0594 24.5877 36.5423 25.7808 37.9915C26.1668 38.4601 26.1113 38.7106 25.6549 39.0519C23.5123 40.6554 21.0434 41.3515 18.4431 41.6793C17.8228 41.7578 17.1931 41.7538 16.5308 41.789Z" fill="white"/>
<path d="M140.921 28.5762C140.921 26.668 140.953 24.7597 140.905 22.8542C140.887 22.1581 141.123 21.9996 141.771 22.0213C143.141 22.0673 144.514 22.066 145.885 22.0213C146.51 22.001 146.692 22.1851 146.686 22.8163C146.657 26.2738 146.675 29.7314 146.669 33.189C146.667 33.6996 146.698 34.2007 146.854 34.6896C147.191 35.7527 147.981 36.3283 149.051 36.2918C150.086 36.2565 150.84 35.6661 151.119 34.6341C151.252 34.1452 151.306 33.6441 151.305 33.1321C151.295 29.7341 151.314 26.3361 151.286 22.9381C151.28 22.2772 151.401 21.982 152.152 22.0172C153.55 22.0809 154.953 22.047 156.355 22.028C156.807 22.0213 157.063 22.0782 157.059 22.6416C157.033 26.4865 157.159 30.3355 157.006 34.175C156.78 39.8509 151.96 42.9415 146.173 41.2702C142.985 40.3493 141.113 37.9346 140.962 34.3862C140.879 32.4523 140.947 30.5129 140.947 28.5762C140.939 28.5762 140.929 28.5762 140.921 28.5762Z" fill="white"/>
<path d="M98.7054 41.7037C96.3516 41.7592 94.1631 41.0414 92.1668 39.6492C91.6372 39.2808 91.621 39.0357 92.0219 38.5589C92.7099 37.7382 93.3505 36.8755 93.964 35.9966C94.3188 35.4887 94.5396 35.3532 95.1138 35.8205C96.5345 36.9784 98.1976 37.2981 99.9893 36.8742C100.658 36.7157 101.166 36.3324 101.176 35.6133C101.184 34.9334 100.618 34.6774 100.054 34.519C99.0237 34.2305 97.9863 33.9691 96.9516 33.6942C93.8258 32.8626 92.4729 31.2876 92.4349 28.4408C92.393 25.3082 93.8556 23.2686 96.8365 22.4425C99.9501 21.5784 102.772 22.2434 105.328 24.1923C105.763 24.5241 105.826 24.7299 105.39 25.1268C104.598 25.8473 103.848 26.6192 103.111 27.398C102.812 27.7149 102.579 27.7623 102.204 27.5171C101.192 26.8562 100.069 26.6436 98.8761 26.8373C98.3506 26.9226 97.8644 27.1149 97.7737 27.7149C97.6802 28.3379 98.0472 28.7414 98.5836 28.9581C99.69 29.4051 100.87 29.6069 102.021 29.8994C104.159 30.4425 105.951 31.4149 106.39 33.8147C107.116 37.7883 105.075 40.7177 101.096 41.5141C100.332 41.6657 99.5654 41.7429 98.7054 41.7037Z" fill="white"/>
<path d="M130.006 29.0056C130.006 25.0428 130.023 21.0801 129.992 17.1173C129.986 16.4564 130.149 16.2451 130.828 16.2682C132.228 16.3156 133.629 16.2952 135.028 16.2465C135.631 16.2248 135.768 16.4374 135.768 17.0063C135.751 24.9913 135.751 32.9778 135.766 40.9629C135.768 41.5019 135.623 41.6861 135.066 41.6752C133.637 41.6468 132.204 41.6481 130.777 41.7037C130.131 41.7281 129.99 41.5032 129.994 40.8951C130.019 36.931 130.006 32.9683 130.006 29.0056Z" fill="white"/>
<path d="M56.5712 15.1265C53.3615 10.3376 47.1763 7.88898 41.2525 9.16611C34.7843 10.5611 29.8018 15.8375 30.0171 22.8732C30.1579 27.4603 30.0442 32.0555 30.0442 36.6467C30.0442 41.5954 30.074 46.5454 30.0171 51.4941C30.0063 52.4448 30.2974 52.6236 31.1629 52.5938C33.0982 52.5302 35.0389 52.5369 36.9756 52.5925C37.7151 52.6141 37.9101 52.4286 37.9047 51.6756C37.8694 46.131 37.8925 40.585 37.8749 35.0404C37.8735 34.4256 37.9575 34.2807 38.5994 34.5339C42.6434 36.1293 46.6983 36.0765 50.68 34.3484C58.3251 31.0303 61.1055 21.8927 56.5712 15.1265ZM44.3783 28.5234C40.8408 28.5234 37.8884 25.6888 37.8871 22.2895C37.8857 18.84 40.8571 15.9486 44.3973 15.954C47.9036 15.9594 50.9468 18.924 50.9197 22.3098C50.8939 25.6861 47.9077 28.5234 44.3783 28.5234Z" fill="white"/>
<path d="M125.338 28.132C125.253 24.8816 123.703 22.9449 120.935 22.2949C118.966 21.833 116.97 21.8303 114.997 22.2475C111.991 22.8826 110.071 25.0983 109.814 28.0778C109.766 28.6195 109.837 28.9107 110.489 28.8809C111.529 28.8349 112.575 28.8457 113.616 28.8796C114.09 28.8945 114.279 28.732 114.399 28.2728C114.994 26.0192 118.342 25.0414 120.151 26.5745C120.48 26.8535 120.652 27.2205 120.748 27.6444C121.071 29.0638 121.05 29.0963 119.634 29.1003C117.112 29.1071 114.632 29.3482 112.365 30.5833C110.258 31.7318 109.115 33.9149 109.367 36.2308C109.652 38.8704 111.064 40.6405 113.53 41.3353C116.061 42.0476 118.473 41.6116 120.922 40.3317C120.796 41.0766 121.09 41.2567 121.696 41.2283C122.707 41.1809 123.722 41.2039 124.735 41.2202C125.155 41.2269 125.391 41.1551 125.388 40.6446C125.367 36.4746 125.446 32.3006 125.338 28.132ZM119.245 37.0678C118.126 37.6312 116.937 37.8384 115.695 37.5797C114.86 37.4064 114.183 37.0136 113.966 36.1144C113.765 35.2815 114.187 34.3402 114.995 33.8161C115.976 33.1809 117.096 33.0238 118.227 32.929C118.611 32.8965 119 32.8992 119.386 32.8965C120.905 32.8843 120.905 32.8857 120.905 34.5244C121.224 35.8015 120.342 36.5152 119.245 37.0678Z" fill="white"/>
<path d="M181.594 15.9282C181.595 15.4556 181.423 15.3188 180.969 15.3161C179.57 15.3106 178.169 15.3012 176.774 15.2226C176.048 15.182 175.8 15.3689 175.819 16.1395C175.873 18.343 175.838 20.5478 175.838 22.8326C172.024 21.4742 170.027 21.7369 167.795 22.3694C161.558 24.1368 158.679 31.3296 161.963 36.8728C164.355 40.9101 169.681 42.8765 174.275 41.4193C178.415 40.1069 181.449 36.6778 181.533 32.8261C181.655 27.1975 181.573 21.5622 181.594 15.9282ZM171.125 36.6033C168.586 36.6372 166.343 34.3903 166.352 31.8212C166.363 29.2913 168.557 27.1799 171.16 27.1962C173.69 27.2111 175.837 29.3509 175.835 31.8537C175.835 34.3998 173.683 36.5694 171.125 36.6033Z" fill="white"/>
</svg>
