<?xml version="1.0" encoding="UTF-8"?>
<svg xmlns="http://www.w3.org/2000/svg" viewBox="0 0 1000 500">
  <defs>
    <style>
      .cls-1 {
        fill: #fefdfd;
      }

      .cls-2 {
        fill: #9e9e9d;
      }

      .cls-3 {
        fill: #e30629;
      }

      .cls-4 {
        letter-spacing: .34em;
      }

      .cls-5 {
        font-family: RedHatDisplay-Light, 'Red Hat Display';
        font-size: 62px;
        font-variation-settings: 'wght' 300;
        font-weight: 300;
      }

      .cls-6 {
        letter-spacing: .32em;
      }

      .cls-7 {
        letter-spacing: .35em;
      }

      .cls-8 {
        letter-spacing: .35em;
      }

      .cls-9 {
        letter-spacing: .28em;
      }

      .cls-10 {
        letter-spacing: .3em;
      }
    </style>
  </defs>
  <g id="Capa_1" data-name="Capa 1">
    <g>
      <path class="cls-1" d="M492.37,.07C622.29,.07,752.21,.09,882.13,0c2.95,0,3.61,.66,3.61,3.61-.09,128.71-.09,257.43,0,386.14,0,2.95-.66,3.61-3.61,3.61-259.84-.08-519.68-.08-779.52,0-2.95,0-3.61-.66-3.61-3.61,.09-128.71,.09-257.43,0-386.14C99,.66,99.66,0,102.61,0,232.53,.09,362.45,.07,492.37,.07Zm-215.85,181.62c0-25.29-.02-50.58,.02-75.87,0-3.69-.33-7.33-.92-10.95-1.66-10.09-5.94-13.83-16.19-14.76-6.74-.61-13.72-.03-20.08-3.01-3.11-1.45-3.35-.51-3.32,2.5,.18,18.6,.17,37.21,.1,55.82-.02,4.15-.82,4.68-4.76,3.32-3.7-1.27-7.35-3.01-11.23-3.29-16.78-1.19-33.3-1.21-49.07,6.6-15.77,7.81-27.33,18.97-32.84,35.92-6.71,20.67-6.05,41.61-1.43,62.46,4.91,22.12,18.69,36.16,40.8,41.53,24.93,6.05,49.88,5.01,74.66-.83,9.09-2.14,17.04-6.63,22.62-14.56,1.11-1.58,1.69-3.12,1.68-5.07-.04-26.6-.03-53.2-.04-79.8Zm124.49,67.14c-7.82,.22-13.57,.24-19.34,.03-6.74-.25-12.41-2.97-17.68-6.8-2.94-2.13-4.71-5.29-4.16-8.81,.49-3.12,4.02-2.8,6.36-3.72,.6-.24,1.27-.33,1.9-.49,11.53-2.93,23.35-2.98,35.11-3.19,10.88-.19,21.73-.67,32.47-2.47,12.59-2.11,19.81-12.55,20.77-23.95,.67-7.96,.07-15.99-1.51-23.87-3.77-18.82-14.15-32.06-33-37.22-22.63-6.19-45.43-5.86-67.77,1.33-17.75,5.71-29.65,17.75-34.6,36.1-5.9,21.89-5.74,43.83-.03,65.67,4.93,18.86,16.7,31.78,35.17,38.18,22.42,7.77,45.46,8.43,68.65,4.65,11.48-1.87,20.67-7.39,24.75-19.18,1.96-5.66,2.1-11.56,2.55-17.44,.27-3.56-.93-4.5-4.54-3.98-15.66,2.26-31.17,5.89-45.1,5.16Zm93.11-35.83c0,13.54-.06,24.16,.02,34.77,.08,10.74,.38,21.48,.39,32.22,0,2.83,.87,3.99,3.77,4.08,5.78,.17,11.54,0,17.2-1.14,12.57-2.53,19.25-9.16,19.3-20.21,.13-26.73-.03-53.46-.37-80.19-.13-10.17-.51-10.37,9.64-11.11,9.5-.69,18.97-2.37,28.58-.94,9.8,1.45,18.54,8.91,18.19,21.28-.66,23.31-.32,46.64-.29,69.97,.01,10.65,4.73,16.75,14.89,20,5.3,1.7,10.76,2.16,16.26,2.4,9.42,.42,9.65,.28,9.65-9.15,.03-29.61,.03-59.23-.02-88.84,0-5.51-.61-10.99-2-16.34-4-15.43-15.07-23.98-28.98-29.72-12.96-5.35-26.72-6.05-40.45-6.73-10.76-.53-21.46,.7-32.14,1.62-8.6,.74-17.16,2.27-25.01,6.25-5.43,2.75-8.38,6.81-8.31,13.41,.2,20.43,.45,40.88-.33,58.38Zm313.65-10.68s-.03,0-.05,0c0-21.23-.06-42.45,.06-63.68,.02-3.11-.97-4.19-4.04-4.09-5.35,.18-10.73-.23-16.04,.82-9.16,1.81-17.15,5.05-19.41,15.56-.51,2.35-.51,4.68-.52,7.02-.01,27.38-.08,54.77,.12,82.15,.03,3.97-1.64,5.43-5.02,6.01-2.57,.44-5.13,.98-7.72,1.33-9.42,1.28-18.78,3.08-28.36,.58-9.09-2.37-15.87-9.55-15.74-19.69,.31-23.84,.14-47.69,.08-71.54-.03-10.17-5.04-16.82-14.6-19.95-6.58-2.16-13.34-2.4-20.16-2.29-5.21,.08-5.89,.61-5.91,5.88-.14,33.27-.26,66.54,.78,99.79,.38,12.2,5.58,22.44,15.5,30,11.74,8.94,25.38,12.73,39.7,14.38,15.79,1.82,31.59,.94,47.35-.69,8.72-.9,17.43-2.24,25.35-6.28,5.56-2.84,8.86-7.04,8.75-14.01-.32-20.43-.11-40.88-.11-61.32Z"/>
      <path class="cls-3" d="M276.52,181.69c0,26.6,0,53.2,.03,79.8,0,1.94-.58,3.49-1.68,5.07-5.58,7.94-13.52,12.42-22.62,14.56-24.78,5.84-49.74,6.89-74.66,.83-22.11-5.37-35.89-19.4-40.8-41.53-4.62-20.84-5.28-41.78,1.43-62.46,5.51-16.95,17.07-28.11,32.84-35.92,15.77-7.81,32.29-7.79,49.07-6.6,3.88,.28,7.52,2.02,11.23,3.29,3.95,1.35,4.75,.83,4.76-3.32,.07-18.61,.08-37.21-.1-55.82-.03-3.01,.22-3.95,3.32-2.5,6.36,2.98,13.33,2.4,20.08,3.01,10.25,.93,14.53,4.67,16.19,14.76,.6,3.62,.93,7.26,.92,10.95-.04,25.29-.02,50.58-.01,75.87Zm-61.53,68c6.35-.52,12.06-.73,17.66-2.45,2.85-.87,3.73-2.31,3.7-5.01-.06-6.94,0-13.87,0-20.81,.01-14.91-.14-29.83,.12-44.73,.08-4.73-2.8-5.88-6.22-6.51-11.52-2.13-23-3.29-34.38,1.22-6.69,2.66-12.02,6.51-15.74,12.84-3.01,5.12-4.29,10.67-5.27,16.33-2.3,13.34-.3,26,8.15,36.82,8.21,10.52,20.34,11.83,31.97,12.31Z"/>
      <path class="cls-3" d="M401.01,248.83c13.92,.74,29.44-2.9,45.1-5.16,3.62-.52,4.82,.43,4.54,3.98-.45,5.88-.59,11.78-2.55,17.44-4.08,11.79-13.27,17.3-24.75,19.18-23.19,3.78-46.22,3.12-68.65-4.65-18.47-6.4-30.24-19.33-35.17-38.18-5.71-21.85-5.87-43.79,.03-65.67,4.95-18.35,16.86-30.38,34.6-36.1,22.33-7.19,45.13-7.52,67.77-1.33,18.86,5.16,29.23,18.4,33,37.22,1.58,7.89,2.18,15.92,1.51,23.87-.96,11.41-8.18,21.84-20.77,23.95-10.74,1.8-21.58,2.28-32.47,2.47-11.77,.21-23.58,.26-35.11,3.19-.63,.16-1.3,.26-1.9,.49-2.34,.92-5.87,.61-6.36,3.72-.55,3.52,1.22,6.68,4.16,8.81,5.27,3.82,10.94,6.55,17.68,6.8,5.77,.21,11.52,.19,19.34-.03Zm-11.39-81.74c-7.83-.1-13.88,1.24-19.45,4.54-10.09,5.97-15.92,17.94-13.41,27.44,.82,3.09,2.07,4.86,5.43,2.68,1.47-.95,3.2-1.17,4.89-1.32,7.69-.66,15.33-1.63,23.08-1.8,6.79-.15,13.63-.93,19.58-4.8,7.59-4.93,7.99-12.69,1.65-19.04-6.57-6.58-14.83-7.07-21.77-7.71Z"/>
      <path class="cls-3" d="M494.12,213.01c.78-17.5,.52-37.95,.33-58.38-.06-6.6,2.88-10.65,8.31-13.41,7.85-3.98,16.41-5.5,25.01-6.25,10.68-.93,21.38-2.15,32.14-1.62,13.73,.68,27.49,1.38,40.45,6.73,13.92,5.74,24.98,14.3,28.98,29.72,1.39,5.35,1.99,10.83,2,16.34,.05,29.61,.04,59.23,.02,88.84,0,9.42-.23,9.56-9.65,9.15-5.51-.24-10.96-.7-16.26-2.4-10.15-3.25-14.87-9.35-14.89-20-.03-23.32-.37-46.66,.29-69.97,.35-12.37-8.39-19.83-18.19-21.28-9.61-1.42-19.08,.25-28.58,.94-10.15,.74-9.76,.94-9.64,11.11,.34,26.73,.49,53.46,.37,80.19-.05,11.06-6.73,17.68-19.3,20.21-5.66,1.14-11.42,1.31-17.2,1.14-2.9-.08-3.77-1.25-3.77-4.08-.02-10.74-.32-21.48-.39-32.22-.08-10.61-.02-21.23-.02-34.77Z"/>
      <path class="cls-2" d="M807.77,202.33c0,20.44-.21,40.88,.11,61.32,.11,6.97-3.19,11.17-8.75,14.01-7.92,4.04-16.63,5.38-25.35,6.28-15.76,1.63-31.56,2.51-47.35,.69-14.31-1.65-27.96-5.44-39.7-14.38-9.92-7.55-15.12-17.8-15.5-30-1.04-33.25-.92-66.53-.78-99.79,.02-5.26,.7-5.79,5.91-5.88,6.82-.11,13.58,.13,20.16,2.29,9.56,3.13,14.57,9.78,14.6,19.95,.06,23.85,.24,47.7-.08,71.54-.13,10.14,6.65,17.32,15.74,19.69,9.58,2.5,18.94,.7,28.36-.58,2.59-.35,5.15-.89,7.72-1.33,3.39-.58,5.05-2.05,5.02-6.01-.2-27.38-.13-54.77-.12-82.15,0-2.34,0-4.67,.52-7.02,2.27-10.52,10.25-13.75,19.41-15.56,5.31-1.05,10.69-.64,16.04-.82,3.07-.1,4.06,.98,4.04,4.09-.12,21.23-.06,42.45-.06,63.68,.02,0,.03,0,.05,0Z"/>
      <path class="cls-1" d="M214.99,249.69c-11.63-.48-23.76-1.8-31.97-12.31-8.45-10.82-10.44-23.48-8.15-36.82,.97-5.65,2.26-11.21,5.27-16.33,3.72-6.33,9.05-10.18,15.74-12.84,11.38-4.52,22.85-3.35,34.38-1.22,3.41,.63,6.3,1.77,6.22,6.51-.26,14.91-.11,29.82-.12,44.73,0,6.94-.06,13.87,0,20.81,.02,2.7-.85,4.14-3.7,5.01-5.6,1.71-11.31,1.93-17.66,2.45Z"/>
      <path class="cls-1" d="M389.62,167.1c6.95,.64,15.21,1.13,21.77,7.71,6.34,6.35,5.93,14.1-1.65,19.04-5.95,3.87-12.79,4.66-19.58,4.8-7.74,.17-15.39,1.14-23.08,1.8-1.7,.14-3.42,.36-4.89,1.32-3.36,2.18-4.62,.41-5.43-2.68-2.51-9.5,3.32-21.47,13.41-27.44,5.57-3.3,11.62-4.64,19.45-4.54Z"/>
    </g>
  </g>
  <g id="Capa_2" data-name="Capa 2">
    <text class="cls-5" transform="translate(136.05 351.42)"><tspan class="cls-7" x="0" y="0">DEN</tspan><tspan class="cls-6" x="191.64" y="0">T</tspan><tspan class="cls-7" x="248.93" y="0"> </tspan><tspan class="cls-10" x="284.58" y="0">F</tspan><tspan class="cls-8" x="339.82" y="0">OR</tspan><tspan class="cls-4" x="472.81" y="0"> </tspan><tspan class="cls-9" x="507.53" y="0">Y</tspan><tspan class="cls-8" x="562.58" y="0">OU</tspan></text>
  </g>
</svg>