<svg width="108" height="108" viewBox="0 0 108 108" fill="none" xmlns="http://www.w3.org/2000/svg">
<g clip-path="url(#clip0_34_159)">
<path d="M39 15H12C8.8174 15 5.76515 16.2643 3.51472 18.5147C1.26428 20.7652 0 23.8174 0 27L0 54H39V15ZM25.011 42.876L19.365 38.775L13.719 42.876L15.876 36.24L10.23 32.136H17.208L19.365 25.5L21.522 32.136H28.5L22.854 36.24L25.011 42.876Z" fill="#1F429B"/>
<path d="M96 15H39V54H108V27C108 23.8174 106.736 20.7652 104.485 18.5147C102.235 16.2643 99.1826 15 96 15Z" fill="#EEEEEE"/>
<path d="M0 54V81C0 84.1826 1.26428 87.2348 3.51472 89.4853C5.76516 91.7357 8.8174 93 12 93H96C99.1826 93 102.235 91.7357 104.485 89.4853C106.736 87.2348 108 84.1826 108 81V54H0Z" fill="#D42D27"/>
<path d="M21.522 32.136L19.365 25.5L17.208 32.136H10.23L15.876 36.24L13.719 42.876L19.365 38.775L25.011 42.876L22.854 36.24L28.5 32.136H21.522Z" fill="white"/>
</g>
<defs>
<clipPath id="clip0_34_159">
<rect width="108" height="108" fill="white"/>
</clipPath>
</defs>
</svg>
