<svg width="961" height="288" viewBox="0 0 961 288" fill="none" xmlns="http://www.w3.org/2000/svg">
<path d="M754 509C754 654.214 631.587 772 480.5 772C329.413 772 207 654.214 207 509C207 363.786 329.413 246 480.5 246C631.587 246 754 363.786 754 509Z" stroke="#BEBEBE" stroke-opacity="0.66" stroke-width="2"/>
<path d="M820 491.5C820 671.783 667.815 818 480 818C292.185 818 140 671.783 140 491.5C140 311.217 292.185 165 480 165C667.815 165 820 311.217 820 491.5Z" stroke="#BEBEBE" stroke-opacity="0.33" stroke-width="2"/>
<path d="M898 482C898 703.428 710.894 883 480 883C249.106 883 62 703.428 62 482C62 260.572 249.106 81 480 81C710.894 81 898 260.572 898 482Z" stroke="#BEBEBE" stroke-opacity="0.2" stroke-width="2"/>
<path d="M960 461.5C960 715.789 745.359 922 480.5 922C215.641 922 1 715.789 1 461.5C1 207.211 215.641 1 480.5 1C745.359 1 960 207.211 960 461.5Z" stroke="#BEBEBE" stroke-opacity="0.09" stroke-width="2"/>
</svg>
