<svg width="37" height="37" viewBox="0 0 37 37" fill="none" xmlns="http://www.w3.org/2000/svg">
<path d="M18.5 3.36366C19.9575 3.36099 21.383 3.7893 22.5963 4.59445C23.8096 5.39959 24.7562 6.54539 25.3164 7.88697C25.8767 9.22854 26.0253 10.7056 25.7436 12.1314C25.4619 13.5573 24.7625 14.8678 23.7338 15.8972C22.7051 16.9267 21.3934 17.6289 19.9645 17.915C18.5356 18.2012 17.0536 18.0584 15.7061 17.5047C14.3585 16.9511 13.2059 16.0114 12.394 14.8046C11.582 13.5978 11.1472 12.178 11.1445 10.7248V10.7113C11.1445 8.7649 11.919 6.89806 13.2981 5.5205C14.6771 4.14294 16.548 3.36724 18.5 3.36366ZM18.5 20.7817C26.733 20.7817 33.2245 26.2489 33.2245 28.9717V32.7955H3.77551V28.9033C3.77551 26.1805 10.2662 20.7817 18.5 20.7817Z" stroke="white" stroke-width="1.5" stroke-linecap="round" stroke-linejoin="round"/>
</svg>
