<svg width="250" height="168" viewBox="0 0 250 168" fill="none" xmlns="http://www.w3.org/2000/svg">
<path d="M248 79.13C247.63 78.32 238.87 58.87 219.52 39.52C193.63 13.67 161 0 125 0C89 0 56.37 13.67 30.51 39.52C11.16 58.87 2.39999 78.32 1.99999 79.13C1.32252 80.666 0.972626 82.3263 0.972626 84.005C0.972626 85.6837 1.32252 87.344 1.99999 88.88C2.36999 89.7 11.13 109.14 30.49 128.49C56.37 154.34 89 168 125 168C161 168 193.63 154.34 219.48 128.49C238.84 109.14 247.6 89.7 247.97 88.88C248.652 87.3461 249.007 85.6869 249.012 84.0082C249.018 82.3294 248.673 80.668 248 79.13ZM201.94 112.13C180.47 133.27 154.59 144 125 144C95.41 144 69.53 133.27 48.09 112.12C39.6534 103.772 32.3964 94.3115 26.52 84C32.3981 73.6926 39.655 64.2354 48.09 55.89C69.54 34.73 95.41 24 125 24C154.59 24 180.46 34.73 201.91 55.89C210.346 64.2346 217.603 73.692 223.48 84C217.603 94.3109 210.346 103.772 201.91 112.12L201.94 112.13ZM125 40C116.298 40 107.791 42.5806 100.555 47.4153C93.3191 52.2501 87.6796 59.122 84.3493 67.1619C81.019 75.2019 80.1477 84.0488 81.8454 92.584C83.5432 101.119 87.7338 108.959 93.8873 115.113C100.041 121.266 107.881 125.457 116.416 127.155C124.951 128.852 133.798 127.981 141.838 124.651C149.878 121.32 156.75 115.681 161.585 108.445C166.419 101.209 169 92.7024 169 84C168.987 72.3345 164.347 61.1507 156.098 52.9019C147.849 44.6532 136.665 40.0132 125 40ZM125 104C121.044 104 117.178 102.827 113.889 100.629C110.6 98.4318 108.036 95.3082 106.522 91.6537C105.009 87.9991 104.613 83.9778 105.384 80.0982C106.156 76.2186 108.061 72.6549 110.858 69.8579C113.655 67.0608 117.219 65.156 121.098 64.3843C124.978 63.6126 128.999 64.0087 132.654 65.5224C136.308 67.0362 139.432 69.5996 141.629 72.8886C143.827 76.1776 145 80.0444 145 84C145 89.3043 142.893 94.3914 139.142 98.1421C135.391 101.893 130.304 104 125 104Z" fill="white"/>
</svg>
