<svg width="41" height="41" viewBox="0 0 41 41" fill="none" xmlns="http://www.w3.org/2000/svg">
<path d="M20.6406 35.22V35.7422L21.1624 35.7195C25.1416 35.5463 28.8948 33.8216 31.6179 30.9148C34.341 28.008 35.8174 24.1504 35.7308 20.1683C35.6442 16.1862 34.0015 12.3963 31.1546 9.6107C28.3077 6.82506 24.483 5.26514 20.5 5.26514C16.517 5.26514 12.6923 6.82506 9.84544 9.6107C6.99855 12.3963 5.35584 16.1862 5.26923 20.1683C5.18263 24.1504 6.659 28.008 9.38209 30.9148C12.1052 33.8216 15.8584 35.5463 19.8376 35.7195L20.3594 35.7422V35.22V23.7031V23.2031H19.8594H15.375C15.3377 23.2031 15.3019 23.1883 15.2756 23.1619L14.922 23.5155L15.2756 23.1619C15.2492 23.1356 15.2344 23.0998 15.2344 23.0625C15.2344 23.0252 15.2492 22.9894 15.2756 22.9631C15.3019 22.9367 15.3377 22.9219 15.375 22.9219H19.8594H20.3594V22.4219V17.9375C20.3594 16.8808 20.7792 15.8673 21.5264 15.1201C22.2736 14.3729 23.287 13.9531 24.3438 13.9531H26.9063C26.9436 13.9531 26.9793 13.9679 27.0057 13.9943L27.3592 13.6408L27.0057 13.9943C27.0321 14.0207 27.0469 14.0565 27.0469 14.0938C27.0469 14.131 27.0321 14.1668 27.0057 14.1932C26.9793 14.2196 26.9436 14.2344 26.9063 14.2344H24.3438C23.3616 14.2344 22.4197 14.6245 21.7253 15.319C21.0308 16.0135 20.6406 16.9554 20.6406 17.9375V22.4219V22.9219H21.1406H25.625C25.6623 22.9219 25.6981 22.9367 25.7244 22.9631C25.7508 22.9894 25.7656 23.0252 25.7656 23.0625C25.7656 23.0998 25.7508 23.1356 25.7244 23.1619L26.078 23.5155L25.7244 23.1619C25.6981 23.1883 25.6623 23.2031 25.625 23.2031H21.1406H20.6406V23.7031V35.22ZM11.88 7.59923C14.4314 5.8944 17.4311 4.98443 20.4997 4.98438C24.6134 4.98896 28.5573 6.62514 31.4661 9.53395C34.3749 12.4428 36.0111 16.3868 36.0156 20.5005C36.0155 23.5691 35.1056 26.5686 33.4008 29.12C31.6959 31.6716 29.2727 33.6602 26.4376 34.8346C23.6025 36.0089 20.4828 36.3162 17.4731 35.7175C14.4633 35.1188 11.6987 33.6411 9.5288 31.4712C7.3589 29.3013 5.88118 26.5367 5.28251 23.5269C4.68384 20.5172 4.9911 17.3975 6.16544 14.5624C7.33978 11.7273 9.32846 9.30411 11.88 7.59923Z" fill="white" stroke="white"/>
</svg>
