<svg width="46" height="46" viewBox="0 0 46 46" fill="none" xmlns="http://www.w3.org/2000/svg">
<path fill-rule="evenodd" clip-rule="evenodd" d="M39.7708 13.4166C39.7708 13.7979 39.6194 14.1635 39.3498 14.4331C39.0802 14.7027 38.7146 14.8541 38.3333 14.8541H7.66663C7.28538 14.8541 6.91974 14.7027 6.65016 14.4331C6.38058 14.1635 6.22913 13.7979 6.22913 13.4166C6.22913 13.0354 6.38058 12.6697 6.65016 12.4002C6.91974 12.1306 7.28538 11.9791 7.66663 11.9791H38.3333C38.7146 11.9791 39.0802 12.1306 39.3498 12.4002C39.6194 12.6697 39.7708 13.0354 39.7708 13.4166ZM39.7708 23C39.7708 23.3812 39.6194 23.7468 39.3498 24.0164C39.0802 24.286 38.7146 24.4375 38.3333 24.4375H7.66663C7.28538 24.4375 6.91974 24.286 6.65016 24.0164C6.38058 23.7468 6.22913 23.3812 6.22913 23C6.22913 22.6187 6.38058 22.2531 6.65016 21.9835C6.91974 21.7139 7.28538 21.5625 7.66663 21.5625H38.3333C38.7146 21.5625 39.0802 21.7139 39.3498 21.9835C39.6194 22.2531 39.7708 22.6187 39.7708 23ZM39.7708 32.5833C39.7708 32.9646 39.6194 33.3302 39.3498 33.5998C39.0802 33.8694 38.7146 34.0208 38.3333 34.0208H7.66663C7.28538 34.0208 6.91974 33.8694 6.65016 33.5998C6.38058 33.3302 6.22913 32.9646 6.22913 32.5833C6.22913 32.2021 6.38058 31.8364 6.65016 31.5668C6.91974 31.2973 7.28538 31.1458 7.66663 31.1458H38.3333C38.7146 31.1458 39.0802 31.2973 39.3498 31.5668C39.6194 31.8364 39.7708 32.2021 39.7708 32.5833Z" fill="white"/>
</svg>
