<svg width="87" height="87" viewBox="0 0 87 87" fill="none" xmlns="http://www.w3.org/2000/svg">
<rect width="87" height="87" fill="white"/>
<path fill-rule="evenodd" clip-rule="evenodd" d="M30.8125 12.6875C30.8125 11.2454 31.3854 9.86233 32.4051 8.84261C33.4248 7.82288 34.8079 7.25 36.25 7.25H50.75C52.1921 7.25 53.5752 7.82288 54.5949 8.84261C55.6146 9.86233 56.1875 11.2454 56.1875 12.6875H61.625C63.0671 12.6875 64.4502 13.2604 65.4699 14.2801C66.4896 15.2998 67.0625 16.6829 67.0625 18.125V45.3125H63.4375V18.125C63.4375 17.6443 63.2465 17.1833 62.9066 16.8434C62.5667 16.5035 62.1057 16.3125 61.625 16.3125H56.1875C56.1875 17.7546 55.6146 19.1377 54.5949 20.1574C53.5752 21.1771 52.1921 21.75 50.75 21.75H36.25C34.8079 21.75 33.4248 21.1771 32.4051 20.1574C31.3854 19.1377 30.8125 17.7546 30.8125 16.3125H25.375C24.8943 16.3125 24.4333 16.5035 24.0934 16.8434C23.7535 17.1833 23.5625 17.6443 23.5625 18.125V68.875C23.5625 69.3557 23.7535 69.8167 24.0934 70.1566C24.4333 70.4965 24.8943 70.6875 25.375 70.6875H47.125V74.3125H25.375C23.9329 74.3125 22.5498 73.7396 21.5301 72.7198C20.5104 71.7001 19.9375 70.3171 19.9375 68.875V18.125C19.9375 16.6829 20.5104 15.2998 21.5301 14.2801C22.5498 13.2604 23.9329 12.6875 25.375 12.6875H30.8125ZM36.25 10.875C35.7693 10.875 35.3083 11.066 34.9684 11.4059C34.6285 11.7458 34.4375 12.2068 34.4375 12.6875V16.3125C34.4375 16.7932 34.6285 17.2542 34.9684 17.5941C35.3083 17.934 35.7693 18.125 36.25 18.125H50.75C51.2307 18.125 51.6917 17.934 52.0316 17.5941C52.3715 17.2542 52.5625 16.7932 52.5625 16.3125V12.6875C52.5625 12.2068 52.3715 11.7458 52.0316 11.4059C51.6917 11.066 51.2307 10.875 50.75 10.875H36.25ZM41.6875 29V34.4375H36.25V38.0625H41.6875V43.5H45.3125V38.0625H50.75V34.4375H45.3125V29H41.6875ZM50.75 48.9375C50.2693 48.9375 49.8083 49.1284 49.4684 49.4683C49.1285 49.8083 48.9375 50.2693 48.9375 50.75V63.055C48.9376 65.1436 49.4533 67.1999 50.4388 69.0413C51.4244 70.8828 52.8493 72.4524 54.5871 73.611L60.6191 77.6348C60.9169 77.8335 61.2669 77.9395 61.625 77.9395C61.9831 77.9395 62.3331 77.8335 62.6309 77.6348L68.6629 73.611C70.4005 72.4526 71.8252 70.8832 72.8107 69.0421C73.7963 67.201 74.3121 65.1451 74.3125 63.0568V50.75C74.3125 50.2693 74.1215 49.8083 73.7816 49.4683C73.4417 49.1284 72.9807 48.9375 72.5 48.9375H50.75ZM68.3439 59.2814L61.0939 66.5314C60.754 66.8712 60.2931 67.0621 59.8125 67.0621C59.3319 67.0621 58.871 66.8712 58.5311 66.5314L54.9061 62.9064L57.4689 60.3435L59.8125 62.6871L65.7811 56.7185L68.3439 59.2814Z" fill="#FF8D86"/>
</svg>
