<svg width="36" height="35" viewBox="0 0 36 35" fill="none" xmlns="http://www.w3.org/2000/svg">
<path d="M32.7286 25.525V25.5244V11.183V11.1824C32.7264 9.30662 31.9773 7.50869 30.6461 6.18294C29.315 4.85726 27.5107 4.11192 25.6291 4.10979H25.6286L11.2286 4.10979L11.228 4.1098C9.34642 4.11192 7.54211 4.85726 6.21101 6.18294C4.87985 7.50869 4.1307 9.30662 4.12856 11.1824V11.183L4.12856 25.5244L4.12856 25.525C4.1307 27.4008 4.87985 29.1987 6.21101 30.5245C7.54211 31.8501 9.34642 32.5955 11.228 32.5976H11.2286H25.6286H25.6291C27.5107 32.5955 29.315 31.8501 30.6461 30.5245C31.9773 29.1987 32.7264 27.4008 32.7286 25.525ZM15.0388 13.3046C16.0418 12.6371 17.2213 12.2806 18.428 12.2805C20.0461 12.2824 21.5969 12.9233 22.7404 14.0622C23.8839 15.201 24.5267 16.7446 24.5286 18.3543C24.5284 19.5548 24.171 20.7285 23.501 21.727C22.831 22.7257 21.8785 23.5044 20.7636 23.9643C19.6487 24.4242 18.4218 24.5446 17.2381 24.3101C16.0545 24.0756 14.9675 23.4969 14.1145 22.6474C13.2615 21.7979 12.6809 20.7158 12.4457 19.5381C12.2105 18.3605 12.3312 17.1397 12.7926 16.0303C13.2541 14.9208 14.0356 13.9721 15.0388 13.3046ZM25.5816 10.3201L25.1199 10.1281L25.5816 10.3201C25.6343 10.1933 25.7237 10.0846 25.8389 10.008C25.954 9.93131 26.0897 9.89028 26.2286 9.89028C26.4149 9.89028 26.5931 9.96401 26.7243 10.0946C26.8553 10.2251 26.9286 10.4017 26.9286 10.5854C26.9286 10.7224 26.8878 10.8566 26.8111 10.9708C26.7344 11.0851 26.6252 11.1745 26.4971 11.2273C26.3689 11.2802 26.2278 11.2941 26.0916 11.2671C25.9554 11.2401 25.8306 11.1736 25.7329 11.0762C25.6351 10.9789 25.5688 10.8551 25.5419 10.7206C25.5151 10.5862 25.5288 10.4468 25.5816 10.3201ZM15.1515 23.2416C16.1217 23.8873 17.2621 24.2317 18.4286 24.2317C19.9927 24.2317 21.4931 23.6129 22.5998 22.5108C23.7065 21.4086 24.3286 19.9133 24.3286 18.3537C24.3286 17.1907 23.9823 16.0539 23.3337 15.0872C22.6852 14.1206 21.7636 13.3675 20.6857 12.9228C19.6079 12.4782 18.422 12.3619 17.2779 12.5885C16.1338 12.8152 15.0826 13.3747 14.2573 14.1966C13.4321 15.0185 12.8698 16.0659 12.642 17.2066C12.4142 18.3472 12.5311 19.5295 12.9779 20.6038C13.4248 21.6781 14.1813 22.596 15.1515 23.2416ZM11.2289 3.91467H25.6283C27.5644 3.91697 29.4201 4.68399 30.7885 6.04685C32.1569 7.4097 32.9263 9.25706 32.9286 11.1835V25.5238C32.9263 27.4503 32.1569 29.2977 30.7885 30.6605C29.42 32.0235 27.5642 32.7905 25.628 32.7927H11.2291C9.29293 32.7905 7.43707 32.0235 6.06859 30.6605C4.70024 29.2978 3.93086 27.4505 3.92856 25.5241V11.1833C3.93086 9.25688 4.70024 7.40963 6.06859 6.04685C7.43701 4.68399 9.29275 3.91697 11.2289 3.91467Z" fill="white" stroke="white"/>
</svg>
