<svg width="59" height="59" viewBox="0 0 59 59" fill="none" xmlns="http://www.w3.org/2000/svg">
<path d="M50.8678 9.23104C50.5293 8.71122 50.0666 8.28394 49.5215 7.98778C48.9764 7.69163 48.3661 7.53595 47.7458 7.53479H36.9045C36.2004 7.53145 35.5104 7.73151 34.9173 8.11092C34.3242 8.49032 33.8533 9.03293 33.5612 9.67354L29.5 18.4006L25.4192 9.67354C25.127 9.03293 24.6561 8.49032 24.063 8.11092C23.4699 7.73151 22.7799 7.53145 22.0758 7.53479H11.2395C10.6195 7.53752 10.0101 7.69656 9.46781 7.9972C8.92552 8.29784 8.46779 8.73037 8.13696 9.2548C7.80614 9.77922 7.61289 10.3786 7.5751 10.9975C7.53731 11.6164 7.65619 12.2348 7.92075 12.7956L17.0903 32.5115C16.351 34.2277 15.9663 36.0757 15.9595 37.9444C15.9595 41.5303 17.384 44.9694 19.9197 47.505C22.4553 50.0407 25.8944 51.4652 29.4803 51.4652C33.0663 51.4652 36.5054 50.0407 39.041 47.505C41.5767 44.9694 43.0012 41.5303 43.0012 37.9444C43.0063 36.0824 42.6211 34.24 41.8703 32.536L51.0891 12.7956C51.3516 12.2299 51.4688 11.6077 51.4302 10.9853C51.3916 10.3629 51.1983 9.75991 50.8678 9.23104ZM10.1333 11.7631C10.0469 11.5714 10.0084 11.3616 10.0213 11.1517C10.0341 10.9418 10.0979 10.7383 10.207 10.5585C10.317 10.3845 10.4695 10.2413 10.6502 10.1424C10.8308 10.0435 11.0336 9.99209 11.2395 9.99312H22.0808C22.3175 9.99229 22.5496 10.0589 22.7498 10.1851C22.9501 10.3114 23.1103 10.4921 23.2116 10.706L29.6278 24.4235H29.4803C27.3585 24.4272 25.2674 24.9298 23.3756 25.8906C21.4838 26.8514 19.8445 28.2436 18.5899 29.9548L10.1333 11.7631ZM29.4803 49.0069C27.2924 49.0069 25.1536 48.3581 23.3343 47.1425C21.5151 45.9269 20.0972 44.1992 19.2599 42.1778C18.4226 40.1564 18.2035 37.9321 18.6304 35.7862C19.0572 33.6403 20.1108 31.6691 21.658 30.122C23.2051 28.5749 25.1762 27.5213 27.3221 27.0944C29.4681 26.6676 31.6924 26.8867 33.7138 27.724C35.7352 28.5612 37.4629 29.9792 38.6785 31.7984C39.894 33.6176 40.5428 35.7564 40.5428 37.9444C40.5428 39.3971 40.2567 40.8356 39.7007 42.1778C39.1448 43.52 38.33 44.7395 37.3027 45.7667C36.2755 46.794 35.0559 47.6088 33.7138 48.1648C32.3716 48.7207 30.9331 49.0069 29.4803 49.0069ZM48.8766 11.7631L40.3708 29.9548C38.4564 27.326 35.6519 25.4825 32.4795 24.7677L30.857 21.2769L35.7737 10.706C35.875 10.4921 36.0352 10.3114 36.2354 10.1851C36.4357 10.0589 36.6678 9.99229 36.9045 9.99312H47.7458C47.9522 9.98923 48.1561 10.0394 48.3372 10.1385C48.5183 10.2377 48.6703 10.3825 48.7782 10.5585C48.8959 10.7343 48.9667 10.9372 48.9839 11.1481C49.0011 11.3589 48.9642 11.5706 48.8766 11.7631Z" fill="url(#paint0_linear_8_75)"/>
<path d="M29.6893 41.4967L32.2066 42.8193C32.2774 42.8569 32.3574 42.8739 32.4374 42.8682C32.5173 42.8626 32.5941 42.8346 32.659 42.7875C32.7238 42.7403 32.7741 42.6759 32.8041 42.6015C32.8341 42.5272 32.8426 42.4459 32.8286 42.3669L32.3369 39.5644C32.3255 39.4959 32.3309 39.4256 32.3528 39.3596C32.3746 39.2937 32.4122 39.234 32.4623 39.1858L34.4978 37.202C34.5565 37.1456 34.5981 37.0737 34.6176 36.9947C34.6371 36.9157 34.6338 36.8327 34.6081 36.7555C34.5824 36.6782 34.5352 36.6099 34.4722 36.5584C34.4091 36.5069 34.3328 36.4743 34.252 36.4645L31.4667 36.0613C31.3966 36.0499 31.3305 36.0215 31.2739 35.9787C31.2173 35.9358 31.1721 35.8798 31.1422 35.8155L29.8835 33.2662C29.8484 33.194 29.7937 33.1331 29.7257 33.0905C29.6577 33.048 29.579 33.0254 29.4988 33.0254C29.4185 33.0254 29.3399 33.048 29.2718 33.0905C29.2038 33.1331 29.1491 33.194 29.114 33.2662L27.8554 35.8155C27.8262 35.8799 27.7815 35.936 27.7253 35.9789C27.6691 36.0218 27.6031 36.0501 27.5333 36.0613L24.7185 36.4694C24.6377 36.4792 24.5614 36.5118 24.4983 36.5633C24.4353 36.6148 24.3882 36.6832 24.3624 36.7604C24.3367 36.8376 24.3334 36.9206 24.3529 36.9996C24.3724 37.0786 24.414 37.1505 24.4727 37.2069L26.5082 39.1908C26.5578 39.2392 26.595 39.2989 26.6164 39.3649C26.6378 39.4308 26.6429 39.501 26.6311 39.5693L26.1395 42.3718C26.1255 42.4508 26.134 42.5321 26.1639 42.6064C26.1939 42.6808 26.2442 42.7452 26.3091 42.7924C26.3739 42.8396 26.4507 42.8675 26.5307 42.8732C26.6107 42.8788 26.6906 42.8618 26.7614 42.8242L29.2788 41.5016C29.3411 41.466 29.4116 41.4468 29.4834 41.446C29.5552 41.4451 29.6261 41.4625 29.6893 41.4967Z" fill="#4F537A"/>
<defs>
<linearGradient id="paint0_linear_8_75" x1="4" y1="4.99999" x2="56.5" y2="57.5" gradientUnits="userSpaceOnUse">
<stop/>
<stop offset="0.0001" stop-color="#736F19" stop-opacity="0.984375"/>
<stop offset="1" stop-color="#FFF622"/>
</linearGradient>
</defs>
</svg>
